# xmcd
#
# Track frame offsets:
#	150
#	15050
#	26277
#	38683
#	47372
#	57493
#	70735
#	81786
#	91653
#	102850
#	113733
#	125075
#	139793
#	156295
#	170473
#	183950
#	194222
#	212942
#	222111
#	235394
#
# Disc length: 3334
#
# Revision: 2
# Processed by: cddbd v1.5.1PL0 Copyright (c) Steve Scherf et al.
# Submitted via: audiograbber 1.80
# Normalized: r1:DSETVAR1,TDELIM( - )
#
DISCID=0b0d0414
DTITLE=Various Artist - Best Of Country
DYEAR=1900
DGENRE=
TTITLE0=Bellamy Brothers - Lovers Live Longer
TTITLE1=Razzy Bailey - 9,999,999 Tears
TTITLE2=Jimmy Dean - A Rose Is A Rose Is A Rose
TTITLE3=Patsy Cline - Ain't No Wheels On This Ship
TTITLE4=Johnny Cash - Ballad Of A Teenage Queen
TTITLE5=Johnny Lee - Blueberry Hill
TTITLE6=Faron Young - Crying Time
TTITLE7=Barbara Mandrell - Do Right Woman, Do Right Man
TTITLE8=Ed Bruce and Lynn Anderson - Down The Hall
TTITLE9=Waylon Jennings - Dream Baby
TTITLE10=Wanda Jackson - In The Middle Of A Heartache
TTITLE11=Jim Reeves - Making Believe
TTITLE12=Hoyt Axton - Nashville
TTITLE13=Bonnie Taylor - Naturally
TTITLE14=Willie Nelson - No Tomorrow In Sight
TTITLE15=Jimmie Rodgers - Oh-O I'm Falling In Love Again
TTITLE16=Jeff Turner - One Good Reason
TTITLE17=Frankie Laine - Rawhide
TTITLE18=Kenny Rogers - Ruby Don't Take Your Love To Town
TTITLE19=Kingston Trio - Tom Dooley
EXTD=
EXTT0=
EXTT1=
EXTT2=
EXTT3=
EXTT4=
EXTT5=
EXTT6=
EXTT7=
EXTT8=
EXTT9=
EXTT10=
EXTT11=
EXTT12=
EXTT13=
EXTT14=
EXTT15=
EXTT16=
EXTT17=
EXTT18=
EXTT19=
PLAYORDER=
